0
SECTION
2
HEADER
9
$INSUNITS
70
4
9
$ACADVER
1
AC1014
9
$HANDSEED
5
FFFF
0
ENDSEC
0
SECTION
2
TABLES
0
TABLE
2
VPORT
5
8
100
AcDbSymbolTable
0
ENDTAB
0
TABLE
2
LTYPE
5
5
100
AcDbSymbolTable
0
LTYPE
5
14
100
AcDbSymbolTableRecord
100
AcDbLinetypeTableRecord
2
BYBLOCK
70
0
0
LTYPE
5
15
100
AcDbSymbolTableRecord
100
AcDbLinetypeTableRecord
2
BYLAYER
70
0
0
ENDTAB
0
TABLE
2
LAYER
5
2
100
AcDbSymbolTable
70
2
0
LAYER
5
50
100
AcDbSymbolTableRecord
100
AcDbLayerTableRecord
2
0
70
0
6
CONTINUOUS
0
ENDTAB
0
TABLE
2
STYLE
5
3
100
AcDbSymbolTable
70
1
0
STYLE
5
11
100
AcDbSymbolTableRecord
100
AcDbTextStyleTableRecord
2
STANDARD
70
0
0
ENDTAB
0
TABLE
2
VIEW
5
6
100
AcDbSymbolTable
70
0
0
ENDTAB
0
TABLE
2
UCS
5
7
100
AcDbSymbolTable
70
0
0
ENDTAB
0
TABLE
2
APPID
5
9
100
AcDbSymbolTable
70
2
0
APPID
5
12
100
AcDbSymbolTableRecord
100
AcDbRegAppTableRecord
2
ACAD
70
0
0
ENDTAB
0
TABLE
2
DIMSTYLE
5
A
100
AcDbSymbolTable
70
1
0
ENDTAB
0
TABLE
2
BLOCK_RECORD
5
1
100
AcDbSymbolTable
70
1
0
BLOCK_RECORD
5
1F
100
AcDbSymbolTableRecord
100
AcDbBlockTableRecord
2
*MODEL_SPACE
0
BLOCK_RECORD
5
1B
100
AcDbSymbolTableRecord
100
AcDbBlockTableRecord
2
*PAPER_SPACE
0
ENDTAB
0
ENDSEC
0
SECTION
2
BLOCKS
0
BLOCK
5
20
100
AcDbEntity
100
AcDbBlockBegin
2
*MODEL_SPACE
0
ENDBLK
5
21
100
AcDbEntity
100
AcDbBlockEnd
0
BLOCK
5
1C
100
AcDbEntity
100
AcDbBlockBegin
2
*PAPER_SPACE
0
ENDBLK
5
1D
100
AcDbEntity
100
AcDbBlockEnd
0
ENDSEC
0
SECTION
2
ENTITIES
0
CIRCLE
5
100
100
AcDbEntity
8
0
100
AcDbCircle
10
-54.00000080466274
20
19.000000283122063
30
0
40
1.1000000000000032
210
0
220
0
230
1
0
CIRCLE
5
101
100
AcDbEntity
8
0
100
AcDbCircle
10
54.000000804662669
20
19.000000283122063
30
0
40
1.1000000000000032
210
0
220
0
230
1
0
CIRCLE
5
102
100
AcDbEntity
8
0
100
AcDbCircle
10
-54.00000080466274
20
7.0000001043081284
30
0
40
1.1000000000000032
210
0
220
0
230
1
0
CIRCLE
5
103
100
AcDbEntity
8
0
100
AcDbCircle
10
54.000000804662669
20
7.0000001043081284
30
0
40
1.0999999999999943
210
0
220
0
230
1
0
CIRCLE
5
104
100
AcDbEntity
8
0
100
AcDbCircle
10
42.000000625848735
20
7.0000001043081284
30
0
40
1.1000000000000032
210
0
220
0
230
1
0
CIRCLE
5
105
100
AcDbEntity
8
0
100
AcDbCircle
10
-42.000000625848806
20
7.0000001043081284
30
0
40
1.1000000000000032
210
0
220
0
230
1
0
CIRCLE
5
106
100
AcDbEntity
8
0
100
AcDbCircle
10
-11.00000000000003
20
60.5
30
0
40
1.0000000000000013
210
2.4651903288156619e-32
220
-6.4191630843279652e-48
230
1
0
CIRCLE
5
107
100
AcDbEntity
8
0
100
AcDbCircle
10
-7.5000000000000338
20
60.500000000000007
30
0
40
1.0000000000000011
210
2.0110496238111206e-63
220
-1.0947644252537636e-47
230
1
0
CIRCLE
5
108
100
AcDbEntity
8
0
100
AcDbCircle
10
-3.246675718672117e-14
20
49.500000000000014
30
0
40
1.0000000000000013
210
2.4651903288156619e-32
220
2.8207638233870316e-49
230
1
0
CIRCLE
5
109
100
AcDbEntity
8
0
100
AcDbCircle
10
-3.3752636325825896e-14
20
53.000000000000007
30
0
40
1.0000000000000011
210
3.3517493730185341e-64
220
-2.7369110631344089e-48
230
1
0
CIRCLE
5
110
100
AcDbEntity
8
0
100
AcDbCircle
10
10.999999999999963
20
60.500000000000014
30
0
40
1.0000000000000013
210
2.4651903288156619e-32
220
1.5194049038408598e-47
230
1
0
CIRCLE
5
111
100
AcDbEntity
8
0
100
AcDbCircle
10
7.4999999999999662
20
60.500000000000007
30
0
40
1.0000000000000011
210
-8.3793734325463348e-64
220
1.3684555315672044e-47
230
1
0
CIRCLE
5
112
100
AcDbEntity
8
0
100
AcDbCircle
10
-3.9202314582031616e-14
20
71.5
30
0
40
1.0000000000000013
210
2.4651903288156619e-32
220
0
230
1
0
CIRCLE
5
113
100
AcDbEntity
8
0
100
AcDbCircle
10
-3.8345061822628464e-14
20
68
30
0
40
1.0000000000000011
210
0
220
0
230
1
0
CIRCLE
5
114
100
AcDbEntity
8
0
100
AcDbCircle
10
-3.6508091623907436e-14
20
60.500000000000007
30
0
40
4.5000000000000009
210
0
220
0
230
1
0
LWPOLYLINE
5
115
100
AcDbEntity
8
0
100
AcDbPolyline
90
6
70
1
43
0.0
10
59.999999999999972
20
71
42
0.41421356237309609
10
54.999999999999972
20
76
10
-55.000000000000028
20
76
42
0.41421356237309609
10
-60.000000000000028
20
71
10
-60.000000000000028
20
0
10
59.999999999999972
20
0
0
CIRCLE
5
116
100
AcDbEntity
8
0
100
AcDbCircle
10
-3.6508091623907436e-14
20
60.500000000000007
30
0
40
4.5000000000000009
210
0
220
0
230
1
0
CIRCLE
5
117
100
AcDbEntity
8
0
100
AcDbCircle
10
-3.8345061822628464e-14
20
68
30
0
40
1.0000000000000011
210
0
220
0
230
1
0
CIRCLE
5
118
100
AcDbEntity
8
0
100
AcDbCircle
10
-3.9202314582031616e-14
20
71.5
30
0
40
1.0000000000000013
210
2.4651903288156619e-32
220
0
230
1
0
CIRCLE
5
119
100
AcDbEntity
8
0
100
AcDbCircle
10
-7.5000000000000338
20
60.500000000000007
30
0
40
1.0000000000000011
210
2.0110496238111206e-63
220
-1.0947644252537636e-47
230
1
0
CIRCLE
5
120
100
AcDbEntity
8
0
100
AcDbCircle
10
-11.00000000000003
20
60.5
30
0
40
1.0000000000000013
210
2.4651903288156619e-32
220
-6.4191630843279652e-48
230
1
0
CIRCLE
5
121
100
AcDbEntity
8
0
100
AcDbCircle
10
-3.3752636325825896e-14
20
53.000000000000007
30
0
40
1.0000000000000011
210
3.3517493730185341e-64
220
-2.7369110631344089e-48
230
1
0
CIRCLE
5
122
100
AcDbEntity
8
0
100
AcDbCircle
10
-3.246675718672117e-14
20
49.500000000000014
30
0
40
1.0000000000000013
210
2.4651903288156619e-32
220
2.8207638233870316e-49
230
1
0
CIRCLE
5
123
100
AcDbEntity
8
0
100
AcDbCircle
10
7.4999999999999662
20
60.500000000000007
30
0
40
1.0000000000000011
210
-8.3793734325463348e-64
220
1.3684555315672044e-47
230
1
0
CIRCLE
5
124
100
AcDbEntity
8
0
100
AcDbCircle
10
10.999999999999963
20
60.500000000000014
30
0
40
1.0000000000000013
210
2.4651903288156619e-32
220
1.5194049038408598e-47
230
1
0
LWPOLYLINE
5
125
100
AcDbEntity
8
0
100
AcDbPolyline
90
6
70
1
43
0.0
10
-55.000000000000028
20
76
10
54.999999999999972
20
76
42
-0.41421356237309609
10
59.999999999999972
20
71
10
59.999999999999972
20
0
10
-60.000000000000028
20
0
10
-60.000000000000028
20
71
42
-0.41421356237309609
0
CIRCLE
5
126
100
AcDbEntity
8
0
100
AcDbCircle
10
42.000000625848735
20
7.0000001043081284
30
0
40
1.1000000000000032
210
0
220
0
230
1
0
CIRCLE
5
127
100
AcDbEntity
8
0
100
AcDbCircle
10
54.000000804662669
20
19.000000283122063
30
0
40
1.1000000000000032
210
0
220
0
230
1
0
CIRCLE
5
128
100
AcDbEntity
8
0
100
AcDbCircle
10
-54.00000080466274
20
7.0000001043081284
30
0
40
1.1000000000000032
210
0
220
0
230
1
0
CIRCLE
5
129
100
AcDbEntity
8
0
100
AcDbCircle
10
-54.00000080466274
20
19.000000283122063
30
0
40
1.1000000000000032
210
0
220
0
230
1
0
CIRCLE
5
130
100
AcDbEntity
8
0
100
AcDbCircle
10
-42.000000625848806
20
7.0000001043081284
30
0
40
1.1000000000000032
210
0
220
0
230
1
0
CIRCLE
5
131
100
AcDbEntity
8
0
100
AcDbCircle
10
54.000000804662669
20
7.0000001043081284
30
0
40
1.0999999999999943
210
0
220
0
230
1
0
ENDSEC
0
SECTION
2
OBJECTS
0
DICTIONARY
5
C
100
AcDbDictionary
3
ACAD_GROUP
350
D
3
ACAD_MLINESTYLE
350
17
0
DICTIONARY
5
D
100
AcDbDictionary
0
DICTIONARY
5
1A
330
C
100
AcDbDictionary
0
DICTIONARY
5
17
100
AcDbDictionary
0
ENDSEC
0
EOF
